<svg preserveAspectRatio="none" width="100%" height="100%" overflow="visible" style="display: block;" viewBox="0 0 32 32" fill="none" xmlns="http://www.w3.org/2000/svg">
<g id="Group 2085662855">
<path id="Vector" d="M14.7771 8.5C12.8358 9.0343 11.666 9.86811 11.666 11.2832C11.666 12.6982 12.8358 14.1988 14.7771 14.731V8.5ZM16.5549 16.9374V23.8332C18.4962 23.301 19.666 21.8003 19.666 20.3853C19.666 18.9702 18.4962 17.4696 16.5549 16.9374Z" fill="url(#paint0_linear_0_4)"/>
<path id="Vector_2" fill-rule="evenodd" clip-rule="evenodd" d="M32 16C32 24.8368 24.8368 32 16 32C7.16319 32 0 24.8368 0 16C0 7.16319 7.16319 0 16 0C24.8368 0 32 7.16319 32 16ZM16 5.2C16.3182 5.2 16.6235 5.32642 16.8485 5.55147C17.0736 5.77651 17.2 6.08174 17.2 6.39999V6.90719C19.808 7.37439 22 9.33439 22 12C22 12.3182 21.8736 12.6235 21.6485 12.8485C21.4235 13.0736 21.1182 13.2 20.8 13.2C20.4817 13.2 20.1765 13.0736 19.9515 12.8485C19.7264 12.6235 19.6 12.3182 19.6 12C19.6 10.9152 18.6976 9.76479 17.2 9.35519V14.9072C19.808 15.3744 22 17.3344 22 20C22 22.6656 19.808 24.6256 17.2 25.0928V25.6C17.2 25.9182 17.0736 26.2235 16.8485 26.4485C16.6235 26.6736 16.3182 26.8 16 26.8C15.6817 26.8 15.3765 26.6736 15.1515 26.4485C14.9264 26.2235 14.8 25.9182 14.8 25.6V25.0928C12.192 24.6256 9.99999 22.6656 9.99999 20C9.99999 19.6817 10.1264 19.3765 10.3515 19.1515C10.5765 18.9264 10.8817 18.8 11.2 18.8C11.5183 18.8 11.8235 18.9264 12.0485 19.1515C12.2736 19.3765 12.4 19.6817 12.4 20C12.4 21.0848 13.3024 22.2352 14.8 22.6432V17.0928C12.192 16.6256 9.99999 14.6656 9.99999 12C9.99999 9.33439 12.192 7.37439 14.8 6.90719V6.39999C14.8 6.08174 14.9264 5.77651 15.1515 5.55147C15.3765 5.32642 15.6817 5.2 16 5.2Z" fill="url(#paint1_linear_0_4)"/>
</g>
<defs>
<linearGradient id="paint0_linear_0_4" x1="15.666" y1="8.5" x2="15.666" y2="23.8332" gradientUnits="userSpaceOnUse">
<stop stop-color="#A363F4"/>
<stop offset="1" stop-color="#E3CDFF"/>
</linearGradient>
<linearGradient id="paint1_linear_0_4" x1="16" y1="0" x2="16" y2="32" gradientUnits="userSpaceOnUse">
<stop stop-color="#A363F4"/>
<stop offset="1" stop-color="#E3CDFF"/>
</linearGradient>
</defs>
</svg>
