<svg preserveAspectRatio="none" width="100%" height="100%" overflow="visible" style="display: block;" viewBox="0 0 40.0001 40.0001" fill="none" xmlns="http://www.w3.org/2000/svg">
<g id="material-symbols-light:percent-discount">
<path id="Vector" d="M19 36C18.4264 36 17.883 35.8933 17.3698 35.68C16.8578 35.4655 16.4038 35.1561 16.008 34.752C15.08 33.8477 14.2883 33.2563 13.6329 32.9778C12.9775 32.6992 11.9926 32.56 10.6782 32.56C9.50133 32.56 8.50044 32.1481 7.67555 31.3244C6.85185 30.4995 6.44 29.4981 6.44 28.32C6.44 27.0305 6.30015 26.0515 6.02044 25.3831C5.74074 24.7147 5.14992 23.9176 4.248 22.992C3.83555 22.5796 3.52444 22.1179 3.31467 21.6071C3.10489 21.0975 3 20.5641 3 20.0071C3 19.4501 3.10489 18.9144 3.31467 18.4C3.52444 17.8856 3.83555 17.4216 4.248 17.008C5.14874 16.0966 5.73955 15.3108 6.02044 14.6507C6.30133 13.9905 6.44118 12.9997 6.44 11.6782C6.44 10.5013 6.85185 9.50045 7.67555 8.67556C8.50044 7.85186 9.50192 7.44001 10.68 7.44001C11.9695 7.44001 12.9478 7.30667 13.6151 7.04001C14.2835 6.77334 15.0812 6.17601 16.008 5.24801C16.4216 4.85808 16.8803 4.5529 17.384 4.33245C17.8877 4.11201 18.421 4.0012 18.984 4.00001C19.547 3.99882 20.0856 4.10371 20.6 4.31468C21.1144 4.52564 21.5784 4.83675 21.992 5.24801C22.9034 6.14875 23.6892 6.73956 24.3493 7.02045C25.0095 7.30134 26.0003 7.44119 27.3218 7.44001C28.4986 7.44001 29.4995 7.85186 30.3244 8.67556C31.1493 9.50045 31.5618 10.5019 31.5618 11.68C31.5618 12.9695 31.7016 13.949 31.9813 14.6187C32.261 15.2883 32.8512 16.0847 33.752 17.008C34.1644 17.4216 34.4755 17.8833 34.6853 18.3929C34.8951 18.9025 35 19.4359 35 19.9929C35 20.5499 34.8951 21.0856 34.6853 21.6C34.4755 22.1156 34.1644 22.5796 33.752 22.992C32.8252 23.92 32.2284 24.7117 31.9618 25.3671C31.6951 26.0225 31.5618 27.0074 31.5618 28.3218C31.5618 29.4987 31.1493 30.4995 30.3244 31.3244C29.4995 32.1493 28.4981 32.5618 27.32 32.5618C26.0305 32.5618 25.0521 32.6951 24.3849 32.9618C23.7176 33.2284 22.92 33.8252 21.992 34.752C21.5795 35.1419 21.1215 35.4477 20.6178 35.6693C20.1141 35.8909 19.5748 36.0012 19 36ZM23.2115 25.9147C23.6975 25.9147 24.1028 25.7523 24.4275 25.4275C24.7523 25.1028 24.9146 24.6975 24.9146 24.2116C24.9146 23.7256 24.7523 23.3126 24.4275 22.9724C24.1028 22.6311 23.6975 22.4604 23.2115 22.4604C22.7256 22.4604 22.3126 22.6311 21.9724 22.9724C21.6323 23.3138 21.4616 23.7268 21.4604 24.2116C21.4592 24.6963 21.6299 25.1016 21.9724 25.4275C22.3149 25.7535 22.728 25.9158 23.2115 25.9147ZM14.7049 25.5182L24.5182 15.7404L23.2595 14.4818L13.4818 24.2951L14.7049 25.5182ZM16.0275 17.0276C16.3677 16.6874 16.5378 16.2744 16.5378 15.7884C16.5378 15.3025 16.3677 14.8972 16.0275 14.5724C15.6874 14.2477 15.2744 14.0853 14.7884 14.0853C14.3025 14.0853 13.8972 14.2477 13.5724 14.5724C13.2477 14.8972 13.0853 15.3025 13.0853 15.7884C13.0853 16.2744 13.2477 16.6874 13.5724 17.0276C13.8972 17.3677 14.3025 17.5384 14.7884 17.5396C15.2744 17.5407 15.6874 17.3701 16.0275 17.0276Z" fill="url(#paint0_linear_0_4)"/>
</g>
<defs>
<linearGradient id="paint0_linear_0_4" x1="19" y1="4" x2="19" y2="36" gradientUnits="userSpaceOnUse">
<stop stop-color="#A363F4"/>
<stop offset="1" stop-color="#E3CDFF"/>
</linearGradient>
</defs>
</svg>
