<svg preserveAspectRatio="none" width="100%" height="100%" overflow="visible" style="display: block;" viewBox="0 0 40.0001 40.0001" fill="none" xmlns="http://www.w3.org/2000/svg">
<g id="mdi:tag">
<path id="Vector" d="M9.93398 12.5C9.29746 12.5 8.68701 12.2471 8.23692 11.7971C7.78684 11.347 7.53398 10.7365 7.53398 10.1C7.53398 9.46348 7.78684 8.85303 8.23692 8.40294C8.68701 7.95285 9.29746 7.7 9.93398 7.7C10.5705 7.7 11.1809 7.95285 11.631 8.40294C12.0811 8.85303 12.334 9.46348 12.334 10.1C12.334 10.7365 12.0811 11.347 11.631 11.7971C11.1809 12.2471 10.5705 12.5 9.93398 12.5ZM35.39 19.828L20.99 5.428C20.414 4.852 19.614 4.5 18.734 4.5H7.53398C5.75798 4.5 4.33398 5.924 4.33398 7.7V18.9C4.33398 19.78 4.68598 20.58 5.27798 21.156L19.662 35.556C20.254 36.132 21.054 36.5 21.934 36.5C22.814 36.5 23.614 36.132 24.19 35.556L35.39 24.356C35.982 23.78 36.334 22.98 36.334 22.1C36.334 21.204 35.966 20.404 35.39 19.828Z" fill="url(#paint0_linear_0_4)"/>
</g>
<defs>
<linearGradient id="paint0_linear_0_4" x1="20.334" y1="4.5" x2="20.334" y2="36.5" gradientUnits="userSpaceOnUse">
<stop stop-color="#A363F4"/>
<stop offset="1" stop-color="#E3CDFF"/>
</linearGradient>
</defs>
</svg>
